<svg width="638" height="929" viewBox="0 0 638 929" fill="none" xmlns="http://www.w3.org/2000/svg">
<path fill-rule="evenodd" clip-rule="evenodd" d="M199.65 207.841C189.331 195.279 182.347 179.884 183.514 162.634C186.877 112.932 253.591 123.866 266.568 148.951C279.546 174.037 278.004 237.668 261.232 242.152C254.543 243.94 240.294 239.56 225.792 230.495L234.895 297.28H181.147L199.65 207.841Z" fill="#B28B67"/>
<path fill-rule="evenodd" clip-rule="evenodd" d="M290.379 114.175C289.266 110.118 286.273 106.644 282.238 105.613C281.26 105.363 280.249 105.262 279.243 105.305C278.882 105.32 278.78 105.428 278.611 105.166C278.486 104.971 278.484 104.497 278.432 104.269C278.272 103.559 278.071 102.859 277.824 102.176C276.98 99.8482 275.561 97.7879 273.851 96.0524C270.652 92.8055 266.33 90.5646 261.84 90.1592C259.382 89.9374 256.942 90.3515 254.619 91.1806C253.416 91.6098 252.249 92.1443 251.113 92.7352C250.771 92.913 249.662 93.7841 249.318 93.7276C248.939 93.6654 248.177 92.6883 247.869 92.4431C244.059 89.4114 239.354 88.2194 234.608 88.255C229.251 88.2969 224.093 88.5745 219.625 91.9611C218.679 92.6781 217.779 93.4631 216.921 94.2897C216.469 94.7248 216.032 95.1763 215.615 95.6465C215.363 95.9302 215.118 96.2203 214.882 96.5182C214.482 97.0238 214.546 97.1899 213.986 96.8371C211.835 95.4824 209.344 94.8488 206.834 95.1687C205.344 95.3587 203.894 95.8227 202.517 96.4334C202.049 96.6413 200.964 97.4705 200.464 97.4786C199.969 97.4865 198.899 96.7178 198.388 96.5224C195.631 95.4668 192.659 95.2066 189.761 95.6944C186.771 96.1977 183.835 97.4347 181.302 99.144C180.083 99.9663 179.021 100.877 178.167 102.1C177.798 102.628 177.465 103.186 177.047 103.676C176.803 103.962 176.318 104.256 176.187 104.619C176.265 104.402 172.917 103.063 172.601 102.978C170.918 102.522 169.204 102.614 167.556 103.177C164.457 104.234 161.792 106.607 159.601 109.038C158.476 110.288 157.492 111.668 156.656 113.14C156.255 113.844 155.889 114.569 155.554 115.309C155.391 115.668 155.284 116.116 155.07 116.439C154.794 116.856 154.609 116.864 154.109 117.045C151.573 117.967 149.261 119.526 147.5 121.634C145.719 123.767 144.563 126.393 144.079 129.158C144.05 129.321 144.033 129.996 143.941 130.084C143.815 130.205 143.305 130.152 143.112 130.175C142.444 130.257 141.781 130.378 141.126 130.538C139.919 130.834 138.745 131.27 137.634 131.841C133.302 134.063 130.205 138.229 128.689 142.918C127.099 147.838 127.127 153.475 129.028 158.303C129.335 159.083 129.7 159.84 130.129 160.556C130.393 160.995 130.478 160.996 130.307 161.458C130.116 161.971 129.768 162.469 129.541 162.971C128.802 164.607 128.286 166.342 127.96 168.114C127.424 171.022 127.159 174.077 127.687 177.006C127.932 178.366 128.359 179.696 129.011 180.907C129.344 181.525 129.732 182.111 130.171 182.653C130.399 182.934 130.642 183.203 130.895 183.461C131.04 183.608 131.229 183.736 131.353 183.901C131.653 184.301 131.716 183.972 131.561 184.56C131.345 185.382 130.853 186.193 130.552 186.994C130.242 187.818 129.962 188.654 129.706 189.498C129.187 191.207 128.748 192.947 128.473 194.717C127.946 198.116 128.039 201.737 129.589 204.856C130.252 206.19 131.202 207.36 132.356 208.271C132.92 208.716 133.531 209.1 134.173 209.415C134.502 209.577 134.923 209.647 135.073 209.977C135.235 210.333 134.995 211.039 134.94 211.436C134.463 214.892 134.224 218.522 135.215 221.909C136.128 225.029 138.137 227.783 140.745 229.607C145.806 233.145 152.627 232.945 157.944 230.113C159.33 229.375 160.627 228.458 161.783 227.377C164.729 231.489 170.79 231.359 175.095 230.187C180.458 228.727 184.761 224.86 187.241 219.778C190.631 224.059 197.746 222.67 200.097 218.026C200.673 216.89 201.014 215.637 201.182 214.37C201.271 213.703 201.214 213.031 201.281 212.37C201.365 211.527 201.908 210.709 202.22 209.894C202.827 208.307 203.205 206.669 203.221 204.958C203.229 204.064 203.12 203.194 203.038 202.308C202.965 201.51 203.178 200.767 203.299 199.979C201.924 200.214 200.248 199.83 198.952 199.416C197.68 199.01 196.489 197.941 195.592 196.965C193.507 194.698 192.234 191.726 191.364 188.768C189.452 182.276 190.236 174.487 196.532 170.924C199.465 169.264 208.253 169.27 211.746 170.09C215.419 170.953 219.584 179.358 219.788 180.148C219.915 180.637 219.852 181.243 220.285 181.568C221.237 182.285 222.807 181.042 223.509 180.428C224.72 179.369 225.585 177.96 226.333 176.532C227.964 173.42 229.279 170.084 230.207 166.677C230.923 164.051 231.381 161.343 232.317 158.784C233.248 156.237 234.716 153.961 236.999 152.519C239.482 150.949 242.328 150.123 245.054 149.137C247.756 148.159 250.411 146.965 252.506 144.891C252.966 144.435 253.414 143.95 253.784 143.413C254.077 142.99 254.366 142.178 254.812 141.909C255.505 141.491 256.517 142.578 257.116 142.973C260.073 144.921 262.54 147.637 264.53 150.605C266.509 153.556 268.132 156.396 269.452 159.692C270.43 162.136 271.041 165.266 272.762 167.269C273.531 168.163 279.243 168.705 281.093 167.924C282.943 167.143 285.016 165.115 285.637 163.845C286.273 162.544 286.425 161.115 286.153 159.692C285.994 158.854 285.667 158.071 285.489 157.249C285.339 156.558 285.202 155.904 284.878 155.271C284.263 154.072 283.213 153.209 281.946 152.849C283.264 151.588 284.356 150.081 285.112 148.395C285.897 146.644 286.563 144.515 286.752 142.593C286.905 141.032 286.668 139.415 285.844 138.074C284.98 136.666 283.449 135.748 282.124 134.871C284.148 133.228 285.88 131.232 287.304 129.021C290.073 124.721 291.786 119.301 290.379 114.175Z" fill="#574A56"/>
<path d="M31.1026 590.093H288.642C306.966 590.093 321.974 605.524 321.974 624.753V838.423C321.974 857.651 306.966 873.083 288.642 873.083H31.1026C12.7791 873.083 -2.22894 857.651 -2.22894 838.423V624.753C-2.22894 605.524 12.7791 590.093 31.1026 590.093ZM66.9342 650.123C60.5212 650.123 55.4763 655.488 55.4763 661.913V801.263C55.4763 807.687 60.5212 813.053 66.9342 813.053H252.811C259.224 813.053 264.268 807.687 264.268 801.263V661.913C264.268 655.488 259.224 650.123 252.811 650.123H66.9342Z" fill="#3E3232" stroke="black" stroke-width="5"/>
<path fill-rule="evenodd" clip-rule="evenodd" d="M484.617 867.825C455.923 801.963 435.172 744.613 426.842 714.355C412.58 662.546 401.731 616.957 398.988 599.931C392.449 559.333 449.291 556.969 456.805 577.146C468.176 607.684 488.029 708.02 511.883 859.574L484.617 867.825ZM151.784 661.131C178.111 650.339 270.305 616.565 314.771 607.011C327.548 604.266 339.933 601.715 351.576 599.41C386.185 592.558 404.115 657.308 370.783 662.283C287.772 674.673 170.091 687.468 160.02 688.904C145.905 690.916 135.239 667.914 151.784 661.131Z" fill="#B28B67"/>
<path fill-rule="evenodd" clip-rule="evenodd" d="M372.817 581.592L230.416 506.414V490.048H247.351C385.118 526.454 455.517 549.786 458.548 560.043C458.581 560.153 458.61 560.264 458.638 560.374C458.707 560.469 458.775 560.564 458.842 560.659C486.145 599.6 502.496 789.713 507.863 803.948L455.545 812.042C435.532 735.079 371.503 681.464 373.203 589.286C372.744 586.582 372.628 584.018 372.817 581.592Z" fill="#363230"/>
<path fill-rule="evenodd" clip-rule="evenodd" d="M242.247 626.24C229.218 623.535 217.219 621.121 206.952 619.254C140.634 607.19 121.295 570.374 132.729 490.048H254.92C274.88 495.994 378.611 541.107 432.431 565.102C468.052 580.983 456.823 638.234 436.651 653.132C436.542 654.046 436.178 654.667 435.532 654.945C327.02 701.587 241.176 677.114 212.5 684.934L199.236 641.541L242.247 626.24Z" fill="#211C1B"/>
<path fill-rule="evenodd" clip-rule="evenodd" d="M161.151 654.341C153.974 655.112 148.874 656.268 145.851 657.806C142.174 659.677 137.101 663.033 130.631 667.873C132.665 672.225 150.947 711.339 185.477 785.215C196.782 783.236 201.293 778.762 199.01 771.791C196.727 764.82 194.887 759.001 193.491 754.332L191.828 687.665C191.796 686.382 190.759 685.387 189.512 685.443C189.49 685.444 189.469 685.445 189.448 685.447L179.475 686.183C173.851 681.516 170.15 677.282 168.373 673.479C166.929 670.39 166.158 665.501 166.059 658.813C166.021 656.246 163.968 654.234 161.473 654.318C161.366 654.322 161.258 654.329 161.151 654.341Z" fill="#B89088"/>
<path fill-rule="evenodd" clip-rule="evenodd" d="M471.558 855.614C469.053 862.55 467.8 867.739 467.8 871.183C467.8 875.371 468.473 881.483 469.818 889.518C474.503 889.518 516.607 889.518 596.129 889.518C599.411 878.264 597.516 872.188 590.444 871.291C583.373 870.394 577.498 869.584 572.82 868.861L514.112 841.718C512.983 841.196 511.659 841.722 511.155 842.894C511.146 842.914 511.138 842.934 511.13 842.954L507.356 852.447C500.81 855.615 495.49 857.199 491.397 857.199C488.071 857.199 483.479 855.806 477.619 853.021C475.37 851.952 472.712 852.975 471.681 855.307C471.637 855.408 471.596 855.51 471.558 855.614Z" fill="#B89088"/>
<path fill-rule="evenodd" clip-rule="evenodd" d="M360.405 453.172L423.844 517.354C442.303 525.52 457.427 534.536 469.217 544.403C471.868 547.72 474.755 554.075 462.28 551.231C449.806 548.388 436.561 545.978 434.217 550.185C431.872 554.393 438.781 560.839 434.447 566.346C431.559 570.016 421.844 558.34 405.303 531.318L339.334 490.982L360.405 453.172ZM78.8212 462.224L125.62 462.415C96.724 559.155 81.1243 610.485 78.8212 616.405C73.6391 629.723 84.605 650.007 89.2944 660.907C74.0211 667.995 75.6485 641.746 56.3816 651.042C38.7957 659.527 25.4181 674.901 5.10016 661.9C2.60218 660.301 -0.135193 654.283 6.47865 649.579C22.9561 637.862 46.7012 617.355 49.9096 610.604C54.2847 601.399 63.9219 551.939 78.8212 462.224Z" fill="#B28B67"/>
<path fill-rule="evenodd" clip-rule="evenodd" d="M211.817 258.569L231.182 255.124C264.522 341.498 322.731 419.98 405.808 490.57L343.031 569.666C259.963 469.156 208.761 365.457 211.817 258.569Z" fill="#574A56"/>
<path fill-rule="evenodd" clip-rule="evenodd" d="M127.4 510.95H299.839C259.889 410.212 239.914 324.636 239.914 254.223L187.898 246.185C147.018 314.37 135.473 398.319 127.4 510.95Z" fill="#DDE3E9"/>
<path fill-rule="evenodd" clip-rule="evenodd" d="M186.796 246.223C186.803 246.21 186.81 246.198 186.817 246.185H190.212C194.275 246.33 200.463 246.592 208.777 246.969L221.346 284.22C222.676 329.638 230.44 421.167 244.639 558.807H131.601C131.898 568.314 132.386 577.909 133.067 587.593H49.0184C61.5906 440.495 107.503 326.692 186.755 246.185L186.796 246.223Z" fill="#574A56"/>
<path fill-rule="evenodd" clip-rule="evenodd" d="M139.068 437.171C142.285 496.429 150.34 537.28 163.232 559.723H131.631C130.247 517.088 132.726 476.238 139.068 437.171Z" fill="black" fill-opacity="0.1"/>
<path fill-rule="evenodd" clip-rule="evenodd" d="M156.761 487.725L212.5 460.852V487.725H156.761Z" fill="white" fill-opacity="0.2"/>
</svg>
