<svg width="603" height="802" viewBox="0 0 603 802" fill="none" xmlns="http://www.w3.org/2000/svg">
<path fill-rule="evenodd" clip-rule="evenodd" d="M204.65 119.841C194.331 107.279 187.347 91.8841 188.514 74.6339C191.877 24.9313 258.591 35.8653 271.568 60.9509C284.546 86.0365 283.003 149.668 266.231 154.152C259.543 155.94 245.294 151.56 230.792 142.495L239.895 209.28H186.147L204.65 119.841Z" fill="#B89088"/>
<path fill-rule="evenodd" clip-rule="evenodd" d="M295.379 26.175C294.266 22.1178 291.272 18.6439 287.238 17.6133C286.26 17.3633 285.249 17.2624 284.243 17.3045C283.881 17.3194 283.78 17.4274 283.611 17.1655C283.486 16.9713 283.483 16.497 283.432 16.2688C283.272 15.5593 283.071 14.8586 282.824 14.1761C281.98 11.8481 280.561 9.78781 278.851 8.05225C275.652 4.80534 271.33 2.56447 266.84 2.15907C264.382 1.9373 261.942 2.3514 259.619 3.18052C258.416 3.60972 257.249 4.14416 256.113 4.73503C255.771 4.91287 254.662 5.78393 254.318 5.7275C253.939 5.66527 253.177 4.68821 252.869 4.44295C249.059 1.41125 244.354 0.219281 239.608 0.254925C234.251 0.296763 229.093 0.574355 224.625 3.96098C223.679 4.67799 222.779 5.46302 221.921 6.28954C221.469 6.72469 221.032 7.17616 220.615 7.64639C220.363 7.93008 220.118 8.22018 219.882 8.51806C219.482 9.02367 219.546 9.18977 218.985 8.83699C216.835 7.48228 214.344 6.84869 211.834 7.16854C210.344 7.35858 208.894 7.82256 207.517 8.43326C207.049 8.64115 205.964 9.47041 205.464 9.47849C204.969 9.48643 203.899 8.71771 203.388 8.52233C200.631 7.46672 197.659 7.20652 194.761 7.69428C191.771 8.19761 188.835 9.43457 186.302 11.1439C185.083 11.9661 184.02 12.8772 183.167 14.0998C182.798 14.6277 182.465 15.1861 182.047 15.6755C181.802 15.9621 181.318 16.2562 181.187 16.6189C181.265 16.4017 177.917 15.0631 177.601 14.9776C175.918 14.5217 174.204 14.6141 172.556 15.1766C169.457 16.2344 166.792 18.6064 164.601 21.0384C163.476 22.2875 162.491 23.6683 161.656 25.1394C161.255 25.8441 160.889 26.5689 160.554 27.3091C160.391 27.6676 160.284 28.1162 160.07 28.4392C159.794 28.8555 159.609 28.8634 159.109 29.0449C156.573 29.9665 154.261 31.5263 152.5 33.634C150.719 35.7665 149.563 38.3924 149.079 41.1578C149.05 41.3207 149.033 41.9958 148.941 42.084C148.815 42.2054 148.305 42.1517 148.112 42.1752C147.444 42.2565 146.78 42.3774 146.126 42.5382C144.919 42.8344 143.745 43.2703 142.633 43.8404C138.302 46.0628 135.205 50.2293 133.689 54.9175C132.098 59.8376 132.127 65.4744 134.028 70.3027C134.335 71.0826 134.7 71.8395 135.129 72.5556C135.393 72.9952 135.478 72.9963 135.307 73.4575C135.116 73.9706 134.768 74.4692 134.541 74.9705C133.802 76.6066 133.286 78.3419 132.959 80.1142C132.424 83.0214 132.159 86.0766 132.687 89.006C132.932 90.3662 133.359 91.6959 134.011 92.9074C134.344 93.5251 134.732 94.1109 135.171 94.6528C135.399 94.9343 135.641 95.203 135.895 95.4605C136.04 95.6075 136.229 95.7362 136.352 95.9005C136.653 96.301 136.716 95.9717 136.561 96.5598C136.345 97.3821 135.853 98.1934 135.552 98.9935C135.242 99.818 134.962 100.654 134.706 101.498C134.187 103.207 133.748 104.947 133.473 106.717C132.946 110.116 133.039 113.737 134.589 116.856C135.252 118.19 136.202 119.36 137.356 120.27C137.92 120.716 138.531 121.1 139.173 121.415C139.502 121.577 139.923 121.647 140.073 121.977C140.235 122.333 139.995 123.038 139.94 123.436C139.463 126.892 139.224 130.521 140.215 133.909C141.128 137.028 143.137 139.783 145.745 141.607C150.806 145.145 157.627 144.945 162.944 142.113C164.33 141.374 165.627 140.458 166.783 139.377C169.729 143.489 175.79 143.358 180.094 142.187C185.458 140.727 189.761 136.86 192.241 131.778C195.631 136.058 202.746 134.67 205.097 130.026C205.673 128.89 206.014 127.637 206.182 126.37C206.27 125.703 206.214 125.031 206.281 124.37C206.365 123.527 206.908 122.709 207.22 121.893C207.827 120.307 208.205 118.669 208.221 116.958C208.229 116.064 208.12 115.194 208.038 114.308C207.965 113.51 208.178 112.767 208.299 111.979C206.924 112.214 205.248 111.83 203.952 111.416C202.68 111.01 201.489 109.941 200.592 108.965C198.507 106.698 197.234 103.726 196.364 100.768C194.452 94.2758 195.236 86.4869 201.532 82.924C204.465 81.2642 213.252 81.2697 216.746 82.09C220.419 82.9525 224.584 91.3582 224.788 92.1483C224.915 92.6373 224.851 93.2425 225.285 93.5683C226.237 94.2847 227.806 93.0414 228.509 92.4278C229.72 91.3689 230.584 89.9599 231.333 88.5316C232.964 85.4202 234.279 82.0834 235.207 78.6771C235.923 76.051 236.381 73.3429 237.317 70.7838C238.248 68.2372 239.716 65.9611 241.999 64.5186C244.482 62.9493 247.328 62.1227 250.054 61.1365C252.756 60.1592 255.411 58.9646 257.506 56.8907C257.966 56.4347 258.413 55.9501 258.784 55.4133C259.077 54.9894 259.366 54.178 259.812 53.9092C260.505 53.4912 261.517 54.5783 262.116 54.9731C265.073 56.9208 267.54 59.6372 269.53 62.6047C271.509 65.556 273.132 68.3959 274.452 71.6914C275.43 74.1356 276.041 77.2658 277.762 79.2689C278.531 80.1633 284.243 80.7044 286.093 79.9235C287.943 79.1427 290.016 77.1151 290.637 75.8445C291.273 74.5439 291.425 73.1152 291.153 71.6914C290.993 70.8538 290.667 70.0713 290.489 69.2486C290.338 68.5575 290.202 67.9043 289.878 67.2712C289.263 66.0714 288.213 65.209 286.946 64.8485C288.264 63.5882 289.356 62.0805 290.112 60.3951C290.897 58.6441 291.563 56.5148 291.752 54.593C291.905 53.0321 291.668 51.4149 290.844 50.0734C289.98 48.6662 288.449 47.7482 287.124 46.8704C289.148 45.2284 290.88 43.2314 292.304 41.0204C295.073 36.7208 296.786 31.301 295.379 26.175Z" fill="#B89088"/>
<path d="M36.1026 502.092H293.642C311.966 502.092 326.974 517.524 326.974 536.752V750.422C326.974 769.651 311.966 785.082 293.642 785.082H36.1026C17.7791 785.082 2.771 769.651 2.771 750.422V536.752C2.771 517.524 17.7791 502.092 36.1026 502.092ZM71.9342 562.122C65.5211 562.122 60.4763 567.487 60.4763 573.912V713.262C60.4763 719.687 65.5211 725.052 71.9342 725.052H257.81C264.224 725.052 269.268 719.687 269.268 713.262V573.912C269.268 567.487 264.224 562.122 257.81 562.122H71.9342Z" fill="#B89088" stroke="#B89088" stroke-width="5"/>
<path fill-rule="evenodd" clip-rule="evenodd" d="M489.617 779.825C460.923 713.963 440.172 656.613 431.842 626.354C417.58 574.545 406.731 528.956 403.988 511.931C397.449 471.333 454.291 468.968 461.805 489.145C473.176 519.684 493.029 620.02 516.883 771.574L489.617 779.825ZM156.784 573.131C183.111 562.339 275.305 528.565 319.77 519.011C332.548 516.266 344.932 513.715 356.576 511.41C391.184 504.558 409.115 569.308 375.783 574.283C292.772 586.673 175.091 599.467 165.02 600.903C150.905 602.916 140.239 579.913 156.784 573.131Z" fill="#B89088"/>
<path fill-rule="evenodd" clip-rule="evenodd" d="M377.817 493.592L235.416 418.413V402.047H252.351C390.118 438.454 460.517 461.786 463.548 472.043C463.581 472.153 463.61 472.263 463.638 472.374C463.707 472.468 463.775 472.563 463.842 472.659C491.145 511.6 507.496 701.713 512.863 715.948L460.545 724.042C440.532 647.079 376.503 593.463 378.203 501.285C377.744 498.582 377.628 496.017 377.817 493.592Z" fill="#B89088"/>
<path fill-rule="evenodd" clip-rule="evenodd" d="M247.247 538.24C234.218 535.535 222.219 533.121 211.952 531.253C145.634 519.19 126.295 482.374 137.729 402.047H259.92C279.88 407.994 383.611 453.107 437.431 477.102C473.052 492.983 461.823 550.233 441.651 565.132C441.541 566.046 441.178 566.667 440.532 566.945C332.02 613.587 246.176 589.114 217.5 596.933L204.236 553.54L247.247 538.24Z" fill="#B89088"/>
<path fill-rule="evenodd" clip-rule="evenodd" d="M166.151 566.341C158.974 567.112 153.874 568.268 150.851 569.806C147.174 571.677 142.101 575.033 135.631 579.873C137.665 584.225 155.947 623.339 190.477 697.215C201.782 695.236 206.293 690.762 204.01 683.791C201.727 676.82 199.887 671.001 198.491 666.332L196.828 599.665C196.796 598.382 195.759 597.387 194.512 597.443C194.49 597.444 194.469 597.445 194.448 597.447L184.475 598.183C178.851 593.516 175.15 589.282 173.373 585.479C171.929 582.39 171.158 577.501 171.059 570.813C171.021 568.246 168.968 566.234 166.473 566.318C166.366 566.322 166.258 566.329 166.151 566.341Z" fill="#B89088"/>
<path fill-rule="evenodd" clip-rule="evenodd" d="M476.558 767.613C474.053 774.549 472.8 779.739 472.8 783.183C472.8 787.371 473.473 793.482 474.818 801.517C479.503 801.517 521.607 801.517 601.129 801.517C604.411 790.264 602.516 784.188 595.444 783.291C588.372 782.394 582.498 781.583 577.82 780.86L519.112 753.718C517.983 753.195 516.659 753.722 516.155 754.893C516.146 754.913 516.138 754.933 516.13 754.954L512.356 764.447C505.81 767.615 500.49 769.199 496.397 769.199C493.071 769.199 488.478 767.806 482.619 765.02C480.37 763.951 477.712 764.975 476.681 767.307C476.636 767.408 476.595 767.51 476.558 767.613Z" fill="#B89088"/>
<path fill-rule="evenodd" clip-rule="evenodd" d="M365.405 365.172L428.844 429.354C447.303 437.52 462.427 446.536 474.217 456.403C476.868 459.72 479.755 466.075 467.28 463.231C454.806 460.388 441.561 457.978 439.217 462.185C436.872 466.393 443.78 472.839 439.447 478.346C436.559 482.016 426.844 470.34 410.303 443.318L344.334 402.982L365.405 365.172ZM83.8211 374.224L130.62 374.415C101.724 471.155 86.1242 522.485 83.8211 528.405C78.6391 541.723 89.6049 562.007 94.2944 572.907C79.021 579.995 80.6484 553.746 61.3815 563.042C43.7956 571.527 30.4181 586.901 10.1001 573.9C7.60212 572.301 4.86475 566.282 11.4786 561.579C27.9561 549.862 51.7012 529.355 54.9095 522.604C59.2846 513.399 68.9218 463.939 83.8211 374.224Z" fill="#B89088"/>
<path fill-rule="evenodd" clip-rule="evenodd" d="M216.817 170.569L236.182 167.124C269.522 253.498 327.731 331.98 410.808 402.57L348.031 481.666C264.963 381.156 213.76 277.457 216.817 170.569Z" fill="#B89088"/>
<path fill-rule="evenodd" clip-rule="evenodd" d="M132.4 422.95H304.839C264.889 322.212 244.914 236.636 244.914 166.223L192.898 158.185C152.017 226.37 140.473 310.319 132.4 422.95Z" fill="#B89088"/>
<path fill-rule="evenodd" clip-rule="evenodd" d="M191.796 158.223C191.803 158.21 191.81 158.198 191.817 158.185H195.212C199.275 158.33 205.463 158.592 213.777 158.969L226.346 196.22C227.676 241.638 235.44 333.167 249.639 470.807H136.601C136.898 480.314 137.386 489.909 138.067 499.593H54.0183C66.5905 352.495 112.503 238.692 191.755 158.185L191.796 158.223Z" fill="#B89088"/>
<path fill-rule="evenodd" clip-rule="evenodd" d="M144.068 349.171C147.285 408.429 155.34 449.28 168.231 471.723H136.63C135.247 429.088 137.726 388.238 144.068 349.171Z" fill="#B89088"/>
<path fill-rule="evenodd" clip-rule="evenodd" d="M161.761 399.725L217.5 372.852V399.725H161.761Z" fill="#B89088"/>
</svg>
