<svg width="412" height="594" viewBox="0 0 412 594" fill="none" xmlns="http://www.w3.org/2000/svg">
<path fill-rule="evenodd" clip-rule="evenodd" d="M242.702 86.7597C239.333 77.3888 238.432 67.1216 242.548 57.5499C254.408 29.971 290.249 50.5363 292.628 67.6098C295.007 84.6833 281.398 120.585 270.941 119.533C266.771 119.113 259.525 113.557 253.072 105.278L244.9 145.263L214.262 133.711L242.702 86.7597Z" fill="#57331F"/>
<path fill-rule="evenodd" clip-rule="evenodd" d="M254.005 88.7677C247.552 94.89 240.298 98.5981 235.049 96.6187C225.078 92.8591 222.841 76.3757 228.057 61.5273C228.241 61.0056 228.433 60.4912 228.633 59.9843C215.451 63.5054 202.13 75.2202 188.174 69.958C169.187 62.7988 175.586 20.2813 202.113 30.2838C220.154 37.0862 228.07 43.1572 234.302 50.0704C237.358 46.2339 240.96 43.3973 244.681 41.8713C245.635 41.3374 246.937 40.9736 248.521 40.7783C249.502 40.6231 250.482 40.5646 251.452 40.6085C256.681 40.5917 263.797 41.8722 271.354 44.416C272.765 44.891 274.139 45.3923 275.467 45.9142C278.048 38.6378 285.827 34.8913 292.864 37.5446C299.914 40.203 303.55 48.279 300.984 55.5828C298.502 62.6462 291.129 66.4008 284.27 64.2358C279.989 64.0148 274.726 63.0535 269.107 61.3665C268.911 63.6417 268.373 66.1075 267.437 68.7707C266.611 71.1223 265.484 73.5217 264.133 75.88C263.458 73.9668 262.203 72.4113 260.589 71.8026C256.073 70.0998 251.578 72.7631 250.142 76.8494C248.32 82.0354 249.892 86.8769 254.005 88.7677Z" fill="#000003"/>
<path fill-rule="evenodd" clip-rule="evenodd" d="M132.76 395.687C165.349 405.13 193.466 409.852 217.11 409.852C240.755 409.852 262.717 402.581 282.997 388.039C251.106 378.346 224.842 373.5 204.205 373.5C183.569 373.5 159.754 380.896 132.76 395.687Z" fill="#144946"/>
<path fill-rule="evenodd" clip-rule="evenodd" d="M245.322 423.463C245.008 422.974 244.742 422.442 244.532 421.865C240.176 409.931 170.402 281.182 163.451 257.644H242.006C247.291 275.54 271.079 387.851 274.427 410.259C284.989 445.604 306.737 560.076 309.513 568.006C312.434 576.349 296.001 585.039 291.622 574.783C284.654 558.464 268.052 513.31 260.66 485.738C253.73 459.891 248.087 436.636 245.322 423.463Z" fill="#3D2216"/>
<path fill-rule="evenodd" clip-rule="evenodd" d="M181.053 439.182C149.153 447.535 32.4716 462.635 24.4643 465.003C16.2274 467.439 9.00523 449.85 19.1865 446.04C35.3866 439.978 80.0253 425.97 107.09 420.254C128.859 415.656 148.724 411.905 162.06 409.708C160.93 370.898 155.766 277.76 159.151 257.644H228.658C225.412 276.933 197.97 417.684 192.87 431.773C191.251 436.802 186.421 439.025 181.053 439.182Z" fill="#57331F"/>
<path fill-rule="evenodd" clip-rule="evenodd" d="M19.9258 441.357C15.6665 440.536 12.545 440.307 10.5614 440.67C8.14888 441.11 4.69929 442.17 0.212619 443.848C0.706103 446.747 5.14112 472.804 13.5177 522.019C20.3459 522.866 23.646 521.054 23.418 516.583C23.19 512.112 23.0379 508.391 22.9617 505.42L32.4127 466.231C32.5945 465.477 32.1519 464.713 31.424 464.524C31.4115 464.521 31.399 464.518 31.3865 464.515L25.5204 463.179C23.0061 459.46 21.5333 456.335 21.1022 453.802C20.7519 451.743 21.0705 448.755 22.0579 444.835C22.4368 443.331 21.567 441.793 20.1151 441.401C20.0525 441.384 19.9894 441.369 19.9258 441.357Z" fill="#702020"/>
<path fill-rule="evenodd" clip-rule="evenodd" d="M286.635 573.455C285.115 577.658 284.356 580.803 284.356 582.89C284.356 585.427 284.764 589.131 285.58 594C288.422 594 313.962 594 362.201 594C364.192 587.18 363.042 583.499 358.753 582.955C354.463 582.411 350.899 581.92 348.062 581.482L312.449 565.035C311.764 564.718 310.961 565.037 310.655 565.747C310.65 565.759 310.645 565.772 310.64 565.784L308.351 571.537C304.379 573.456 301.152 574.416 298.669 574.416C296.652 574.416 293.866 573.572 290.312 571.884C288.948 571.236 287.335 571.856 286.71 573.27C286.683 573.33 286.658 573.392 286.635 573.455Z" fill="#702020"/>
<path fill-rule="evenodd" clip-rule="evenodd" d="M159.375 257.644C190.005 248.565 218.986 248.565 246.318 257.644C255.827 302.591 278.934 320.43 282.997 389.342C236.809 413.117 179.753 372.386 132.206 395.571C118.621 363.14 137.64 285.037 159.375 257.644Z" fill="#1D6D69"/>
<path fill-rule="evenodd" clip-rule="evenodd" d="M308.902 245.546L362.188 237.267C372.76 231.031 382.514 226.769 391.45 224.48C393.975 224.365 398.011 225.239 392.121 230.427C386.232 235.615 380.265 241.345 381.383 244.047C382.502 246.748 388.05 245.649 389.052 249.816C389.72 252.593 380.693 253.189 361.971 251.601L318.953 269.826L308.902 245.546ZM114.45 197.923L140.013 210.914C99.4374 255.331 77.7616 278.825 74.9861 281.395C68.7411 287.178 69.5508 301.18 69.3272 308.372C59.1542 308.004 66.7634 294.241 53.8395 293.968C42.0433 293.719 30.7868 298.358 22.9949 285.724C22.037 284.171 22.0793 280.159 26.9028 279.434C38.9198 277.628 57.1641 273.064 60.6478 270.293C65.3983 266.515 83.3323 242.391 114.45 197.923Z" fill="#57331F"/>
<path fill-rule="evenodd" clip-rule="evenodd" d="M241.606 122.065L253.512 123.22C271.924 154.819 266.689 217.003 281.185 229.451C294.892 241.219 318.906 240.179 347.75 237.779L351.028 258.526C320.224 278.473 263.441 286.786 246.097 268.227C218.366 238.555 229.681 163.208 241.606 122.065Z" fill="#235E2C"/>
<path fill-rule="evenodd" clip-rule="evenodd" d="M153.945 255.28C199.605 267.955 233.192 277.278 254.705 283.25C259.309 284.528 260.208 277.458 260.433 273.828C263.038 231.926 244.141 180.732 258.783 124.12L230.93 111.371C196.619 144.411 175.659 190.998 153.945 255.28Z" fill="#DDE3E9"/>
<path fill-rule="evenodd" clip-rule="evenodd" d="M154.309 212.225C123.925 244.581 99.5729 267.188 81.2524 280.046L61.2312 269.934C97.2513 187.046 153.193 134.018 229.055 110.851L234.301 112.307L240.563 114.045C243.025 212.645 234.474 275.513 214.91 302.649L124.21 277.472C131.395 255.637 142.078 233.401 154.309 212.225Z" fill="#194520"/>
</svg>
