<svg width="412" height="594" viewBox="0 0 412 594" fill="none" xmlns="http://www.w3.org/2000/svg">
<g opacity="0.8">
<path fill-rule="evenodd" clip-rule="evenodd" d="M169.298 86.7599C172.667 77.389 173.568 67.1218 169.452 57.5501C157.592 29.9713 121.751 50.5365 119.372 67.61C116.993 84.6835 130.602 120.585 141.059 119.533C145.229 119.114 152.475 113.557 158.928 105.278L167.1 145.263L197.738 133.711L169.298 86.7599Z" fill="#235E2C"/>
<path fill-rule="evenodd" clip-rule="evenodd" d="M157.995 88.7677C164.448 94.89 171.702 98.5981 176.951 96.6187C186.922 92.8591 189.159 76.3757 183.943 61.5273C183.759 61.0056 183.567 60.4912 183.367 59.9843C196.549 63.5054 209.87 75.2202 223.826 69.958C242.813 62.7988 236.414 20.2813 209.887 30.2838C191.846 37.0862 183.93 43.1572 177.698 50.0704C174.642 46.2339 171.04 43.3973 167.319 41.8713C166.365 41.3374 165.063 40.9736 163.479 40.7783C162.498 40.6231 161.518 40.5646 160.548 40.6085C155.319 40.5917 148.203 41.8722 140.646 44.416C139.235 44.891 137.861 45.3923 136.533 45.9142C133.952 38.6378 126.173 34.8913 119.136 37.5446C112.086 40.203 108.45 48.279 111.016 55.5828C113.498 62.6462 120.871 66.4008 127.73 64.2358C132.011 64.0148 137.274 63.0535 142.893 61.3665C143.089 63.6417 143.627 66.1075 144.563 68.7707C145.389 71.1223 146.516 73.5217 147.867 75.88C148.542 73.9668 149.797 72.4113 151.411 71.8026C155.927 70.0998 160.422 72.7631 161.858 76.8494C163.68 82.0354 162.108 86.8769 157.995 88.7677Z" fill="#235E2C"/>
<path fill-rule="evenodd" clip-rule="evenodd" d="M279.24 395.687C246.651 405.13 218.534 409.852 194.89 409.852C171.245 409.852 149.283 402.581 129.003 388.039C160.894 378.346 187.158 373.5 207.795 373.5C228.431 373.5 252.246 380.896 279.24 395.687Z" fill="#235E2C"/>
<path fill-rule="evenodd" clip-rule="evenodd" d="M166.678 423.463C166.992 422.974 167.257 422.442 167.468 421.865C171.824 409.931 241.598 281.182 248.549 257.644H169.994C164.708 275.54 140.921 387.851 137.573 410.259C127.01 445.604 105.263 560.076 102.487 568.006C99.5662 576.349 115.999 585.039 120.378 574.783C127.346 558.464 143.948 513.31 151.34 485.738C158.27 459.891 163.913 436.636 166.678 423.463Z" fill="#235E2C"/>
<path fill-rule="evenodd" clip-rule="evenodd" d="M230.947 439.182C262.847 447.535 379.529 462.635 387.536 465.003C395.773 467.439 402.995 449.85 392.814 446.04C376.613 439.978 331.975 425.97 304.91 420.254C283.141 415.656 263.276 411.905 249.94 409.708C251.07 370.898 256.234 277.76 252.849 257.644H183.342C186.588 276.933 214.03 417.684 219.13 431.773C220.749 436.802 225.579 439.025 230.947 439.182Z" fill="#235E2C"/>
<path fill-rule="evenodd" clip-rule="evenodd" d="M392.074 441.357C396.334 440.536 399.455 440.307 401.439 440.67C403.851 441.11 407.301 442.17 411.787 443.848C411.294 446.747 406.859 472.804 398.482 522.019C391.654 522.866 388.354 521.054 388.582 516.583C388.81 512.112 388.962 508.391 389.038 505.42L379.587 466.231C379.406 465.477 379.848 464.713 380.576 464.524C380.589 464.521 380.601 464.518 380.614 464.515L386.48 463.179C388.994 459.46 390.467 456.335 390.898 453.802C391.248 451.743 390.93 448.755 389.942 444.835C389.563 443.331 390.433 441.793 391.885 441.401C391.948 441.384 392.011 441.369 392.074 441.357Z" fill="#235E2C"/>
<path fill-rule="evenodd" clip-rule="evenodd" d="M125.365 573.455C126.885 577.658 127.644 580.803 127.644 582.89C127.644 585.427 127.236 589.131 126.42 594C123.578 594 98.038 594 49.7993 594C47.8082 587.18 48.9576 583.499 53.2474 582.955C57.5373 582.411 61.101 581.92 63.9384 581.482L99.551 565.035C100.236 564.718 101.039 565.037 101.345 565.747C101.35 565.759 101.355 565.772 101.36 565.784L103.649 571.537C107.621 573.456 110.848 574.416 113.331 574.416C115.348 574.416 118.134 573.572 121.688 571.884C123.052 571.236 124.665 571.856 125.29 573.27C125.317 573.33 125.342 573.392 125.365 573.455Z" fill="#235E2C"/>
<path fill-rule="evenodd" clip-rule="evenodd" d="M252.625 257.644C221.995 248.565 193.014 248.565 165.682 257.644C156.173 302.591 133.066 320.43 129.003 389.342C175.191 413.117 232.248 372.386 279.794 395.571C293.379 363.14 274.36 285.037 252.625 257.644Z" fill="#235E2C"/>
<path fill-rule="evenodd" clip-rule="evenodd" d="M103.098 245.546L49.8118 237.267C39.2397 231.031 29.4858 226.769 20.5501 224.48C18.0254 224.365 13.989 225.239 19.8786 230.426C25.7681 235.614 31.7349 241.345 30.6166 244.046C29.4982 246.748 23.9501 245.649 22.9482 249.815C22.2802 252.593 31.3072 253.188 50.0289 251.601L93.0466 269.825L103.098 245.546ZM297.55 197.923L271.987 210.913C312.563 255.331 334.238 278.824 337.014 281.395C343.259 287.178 342.449 301.18 342.673 308.372C352.846 308.004 345.237 294.241 358.16 293.968C369.957 293.719 381.213 298.358 389.005 285.724C389.963 284.171 389.921 280.159 385.097 279.434C373.08 277.628 354.836 273.064 351.352 270.293C346.602 266.514 328.668 242.391 297.55 197.923Z" fill="#235E2C"/>
<path fill-rule="evenodd" clip-rule="evenodd" d="M170.394 122.065L158.488 123.22C140.076 154.819 145.312 217.003 130.815 229.451C117.108 241.22 93.0945 240.179 64.2497 237.78L60.9721 258.526C91.7758 278.473 148.559 286.787 165.903 268.227C193.634 238.555 182.319 163.209 170.394 122.065Z" fill="#235E2C"/>
<path fill-rule="evenodd" clip-rule="evenodd" d="M258.055 255.28C212.395 267.955 178.808 277.278 157.295 283.25C152.691 284.528 151.792 277.458 151.567 273.827C148.962 231.925 167.859 180.732 153.217 124.12L181.07 111.371C215.381 144.411 236.341 190.998 258.055 255.28Z" fill="#235E2C"/>
<path fill-rule="evenodd" clip-rule="evenodd" d="M257.691 212.225C288.075 244.581 312.427 267.188 330.748 280.046L350.769 269.934C314.749 187.046 258.807 134.018 182.945 110.851L177.699 112.307L171.437 114.045C168.975 212.645 177.526 275.513 197.09 302.649L287.79 277.472C280.605 255.637 269.922 233.401 257.691 212.225Z" fill="#235E2C"/>
</g>
</svg>
