<svg width="399" height="643" viewBox="0 0 399 643" fill="none" xmlns="http://www.w3.org/2000/svg">
<path fill-rule="evenodd" clip-rule="evenodd" d="M241.645 70.3399C250.508 63.9638 257.662 55.1029 259.79 43.5114C265.922 10.1128 220.407 4.98856 207.704 19.1321C195.001 33.2757 185.342 75.5233 195.571 81.581C199.651 83.9967 209.715 83.7428 220.73 80.446L203.572 122.805L238.763 132.742L241.645 70.3399Z" fill="#17464B"/>
<path fill-rule="evenodd" clip-rule="evenodd" d="M229.429 38.8171C223.098 58.0368 217.043 66.8306 211.263 65.1985C202.593 62.7503 196.699 54.9241 192.895 53.8499C190.122 53.0668 189.819 56.8665 190.974 60.0731C191.927 62.7186 198.769 66.9413 197.895 70.3789C197.021 73.8165 191.862 69.5093 191.344 71.5481C190.486 74.9204 187.849 80.9715 193.452 82.5538C199.123 84.1552 215.932 86.5879 220.954 78.5833C224.195 73.4173 228.347 61.9885 233.41 44.2968C233.765 44.3513 234.12 44.4282 234.475 44.5284C239.334 45.9005 242.227 51.127 240.937 56.2023C240.282 58.7788 238.674 60.8209 236.615 62.0278C237.888 65.604 239.372 69.3835 241.164 73.3569C252.55 69.9755 264.419 54.0162 259.217 33.9968C258.719 24.7684 253.863 18.5428 247.301 14.4362C242.192 10.3016 236.297 8.33343 230.877 8.4167C220.778 6.51314 211.161 7.16832 208.188 8.33039C205.705 18.0946 206.78 21.5031 222.316 25.6165C225.584 28.787 227.588 33.2233 229.429 38.8171Z" fill="#17464B"/>
<path fill-rule="evenodd" clip-rule="evenodd" d="M221.63 261.882L147.122 459.85L97.1498 627.216H77.4167L153.814 261.882L221.63 261.882Z" fill="#17464B"/>
<path fill-rule="evenodd" clip-rule="evenodd" d="M236.633 261.882C237.426 331.449 248.997 425.111 250.846 429.447C252.078 432.338 294.623 469.102 378.479 539.739L364.888 555.007C265.945 494.445 214.184 460.125 209.605 452.047C202.738 439.931 180.378 328.436 162.426 261.882H236.633Z" fill="#17464B"/>
<path fill-rule="evenodd" clip-rule="evenodd" d="M380.387 534.611C384.951 536.311 388.096 537.924 389.82 539.448C391.917 541.303 394.684 544.377 398.121 548.671C396.079 551.234 377.734 574.275 343.085 617.791C336.02 614.605 333.804 610.878 336.436 606.611C339.068 602.343 341.222 598.77 342.898 595.89L354.888 551.746C355.118 550.896 355.959 550.405 356.765 550.648C356.779 550.652 356.792 550.656 356.806 550.661L363.204 552.799C367.642 550.619 370.753 548.409 372.537 546.17C373.986 544.35 375.289 541.22 376.448 536.78C376.892 535.076 378.563 534.075 380.18 534.543C380.25 534.563 380.319 534.586 380.387 534.611Z" fill="#17464B"/>
<path fill-rule="evenodd" clip-rule="evenodd" d="M105.23 619.646C106.928 624.423 107.777 627.998 107.777 630.37C107.777 633.255 107.321 637.465 106.409 642.999C103.234 642.999 74.6937 642.999 20.7895 642.999C18.5645 635.248 19.8489 631.063 24.6426 630.445C29.4363 629.827 33.4185 629.268 36.5892 628.77L76.3845 610.074C77.1502 609.714 78.0477 610.077 78.3891 610.884C78.3949 610.898 78.4006 610.912 78.406 610.926L80.964 617.465C85.4017 619.647 89.0078 620.738 91.7823 620.738C94.0365 620.738 97.1496 619.778 101.122 617.86C102.646 617.123 104.448 617.828 105.147 619.435C105.177 619.504 105.205 619.574 105.23 619.646Z" fill="#17464B"/>
<path fill-rule="evenodd" clip-rule="evenodd" d="M171.535 609.977L77.7135 599.288L147.246 261.882H231.278L171.535 609.977Z" fill="#17464B"/>
<path fill-rule="evenodd" clip-rule="evenodd" d="M359.072 515.106L297.531 591.576C232.711 517.257 194.921 468.763 184.161 446.096C173.4 423.428 163.727 362.024 155.142 261.882H249.746C254.436 349.982 257.598 396.083 259.231 400.182C260.863 404.282 294.144 442.59 359.072 515.106Z" fill="#17464B"/>
<path fill-rule="evenodd" clip-rule="evenodd" d="M105.425 225.174L51.5938 253.034C38.0477 254.291 26.4802 256.836 16.8912 260.671C14.5136 262.249 11.3725 265.755 19.9883 266.649C28.6041 267.543 37.6289 268.89 38.2932 272.149C38.9574 275.407 33.2046 278.088 34.8893 282.631C36.0124 285.66 44.6279 280.189 60.7359 266.22L111.394 254.46L105.425 225.174ZM288.307 260.464L257.044 254.788C265.408 323.674 270.024 360.257 270.893 364.538C272.848 374.171 263.237 386.503 258.876 393.279C268.271 399.958 270.149 382.038 281.961 390.703C292.742 398.611 299.936 410.649 314.968 404.393C316.816 403.624 319.323 399.901 315.439 395.905C305.763 385.952 292.228 369.164 290.848 364.21C288.967 357.453 288.12 322.872 288.307 260.464Z" fill="#17464B"/>
<path fill-rule="evenodd" clip-rule="evenodd" d="M222.526 106.497L209.988 101.77C154.754 136.307 121.087 216.119 54.8972 249.413L65.9703 270.436C170.179 276.146 212.494 179.027 222.526 106.497Z" fill="#17464B"/>
<path fill-rule="evenodd" clip-rule="evenodd" d="M250.374 287.329C198.541 277.698 160.414 270.613 135.992 266.075C130.765 265.103 133.075 257.372 134.498 253.519C150.93 209.048 193.283 165.688 204.26 100.078L238.161 100.784C257.75 151.88 257.706 210.301 250.374 287.329Z" fill="#17464B"/>
<path fill-rule="evenodd" clip-rule="evenodd" d="M271.788 153.68C276.822 153.126 281.18 150.462 284.863 145.689C300.74 125.111 298.487 111.739 286.291 105.214C274.095 98.69 261.178 105.061 240.646 101.245C239.529 101.038 238.494 100.921 237.54 100.895L227.108 99.594C179.852 199.407 159.923 268.156 167.319 305.841L257.346 322.57C260.498 336.605 263.766 348.527 267.151 358.338L291.682 362.896C307.088 285.044 300.457 215.306 271.788 153.68Z" fill="#17464B"/>
<path fill-rule="evenodd" clip-rule="evenodd" d="M246.792 264.838C239.804 289.155 232.186 306.329 223.936 316.363L257.346 322.571C253.67 306.2 250.152 286.956 246.792 264.838Z" fill="#17464B"/>
</svg>
