<svg width="404" height="667" viewBox="0 0 404 667" fill="none" xmlns="http://www.w3.org/2000/svg">
<path fill-rule="evenodd" clip-rule="evenodd" d="M203.954 58.1547C211.754 49.0348 217.034 37.8584 216.151 25.3348C213.61 -10.7491 163.183 -2.81109 153.374 15.401C143.565 33.613 144.73 79.8094 157.408 83.0644C162.463 84.3625 173.233 81.1827 184.195 74.6014L177.315 123.087H217.94L203.954 58.1547Z" fill="#5B3C25"/>
<path fill-rule="evenodd" clip-rule="evenodd" d="M231.482 263.036L170.112 477.556L125.336 635.669H92.6779L140.259 263.036H231.482Z" fill="#5B3C25"/>
<path fill-rule="evenodd" clip-rule="evenodd" d="M247.894 263.036C249.314 373.602 254.154 433.908 255.645 443.953C257.135 453.999 279.671 517.904 323.251 635.669H289.42C233.938 522.694 202.967 458.788 196.506 443.953C190.045 429.118 170.106 368.812 140.074 263.036H247.894Z" fill="#5B3C25"/>
<path fill-rule="evenodd" clip-rule="evenodd" d="M326.275 666.019L324.583 630.611H289.035C272.18 642.414 250.174 651.968 223.019 659.275V666.019H287.342L309.348 662.647V666.019H326.275Z" fill="#5B3C25"/>
<path fill-rule="evenodd" clip-rule="evenodd" d="M129.918 666.019L128.225 630.611H92.678C75.8225 642.414 53.8169 651.968 26.6614 659.275V666.019H90.9853L112.991 662.647V666.019H129.918Z" fill="#5B3C25"/>
<path fill-rule="evenodd" clip-rule="evenodd" d="M88.685 235.4L37.5871 278.551C23.2538 283.495 11.3914 289.231 2.00001 295.758C-0.16779 298.021 -2.6673 302.471 6.88328 301.067C16.4339 299.663 26.543 298.613 28.097 301.783C29.6509 304.953 24.1141 309.26 27.1013 313.475C29.0928 316.285 37.0117 308.339 50.8578 289.638L102.65 263.89L88.685 235.4ZM320.068 216.728L290.087 221.065C322.269 290.617 339.522 327.4 341.847 331.414C347.076 340.446 340.926 356.178 338.521 364.506C350.672 368.001 346.792 349.301 362.156 353.965C376.18 358.222 387.753 367.873 401.642 356.397C403.35 354.986 404.788 350.372 399.36 347.684C385.838 340.987 365.985 328.732 362.899 324.215C358.69 318.056 344.413 282.227 320.068 216.728Z" fill="#5B3C25"/>
<path fill-rule="evenodd" clip-rule="evenodd" d="M194.758 94.9826L176.181 88.8629C150.98 151.57 113.396 212.243 50.6015 263.491L66.1298 290.176C121.318 257.794 173.559 232.639 194.758 184.048C201.873 167.74 195.339 114.482 194.758 94.9826Z" fill="#5B3C25"/>
<path fill-rule="evenodd" clip-rule="evenodd" d="M258.566 271.466C205.349 277.087 163.462 277.087 132.904 271.466C129.118 270.77 128.52 264.456 130.276 260.171C157.617 193.44 176.366 135.213 176.366 88.8633C181.383 91.3826 190.163 91.7602 202.706 89.9959C236.414 137.761 251.909 192.566 258.566 271.466Z" fill="#5B3C25"/>
<path fill-rule="evenodd" clip-rule="evenodd" d="M211.086 85.9927H197.038C193.767 105.155 183.45 364.646 151.601 449.531H323.93C320.194 371.769 290.723 278.358 260.868 200.191C287.267 224.254 310.276 265.027 329.895 322.51L362.174 314.256C338.173 211.24 288.828 135.522 214.138 87.1039C213.976 86.7318 213.815 86.3613 213.655 85.9927H212.412C211.954 85.7002 211.496 85.4087 211.036 85.1182L211.086 85.9927Z" fill="#5B3C25"/>
</svg>
