<svg width="598" height="802" viewBox="0 0 598 802" fill="none" xmlns="http://www.w3.org/2000/svg">
<path fill-rule="evenodd" clip-rule="evenodd" d="M199.65 119.841C189.331 107.279 182.347 91.8844 183.514 74.6342C186.877 24.9316 253.591 35.8655 266.568 60.9511C279.546 86.0367 278.004 149.668 261.232 154.152C254.543 155.94 240.294 151.56 225.792 142.495L234.895 209.28H181.147L199.65 119.841Z" fill="#B28B67"/>
<path fill-rule="evenodd" clip-rule="evenodd" d="M290.379 26.1752C289.266 22.1179 286.273 18.644 282.238 17.6134C281.26 17.3635 280.249 17.2625 279.243 17.3046C278.882 17.3195 278.78 17.4275 278.611 17.1656C278.486 16.9715 278.484 16.4971 278.432 16.2689C278.272 15.5594 278.071 14.8587 277.824 14.1762C276.98 11.8482 275.561 9.78794 273.851 8.05238C270.652 4.80546 266.33 2.5646 261.84 2.15919C259.382 1.93742 256.942 2.35152 254.619 3.18064C253.416 3.60984 252.249 4.14428 251.113 4.73515C250.771 4.913 249.662 5.78405 249.318 5.72762C248.939 5.66539 248.177 4.68833 247.869 4.44307C244.059 1.41137 239.354 0.219403 234.608 0.255047C229.251 0.296885 224.093 0.574477 219.625 3.9611C218.679 4.67811 217.779 5.46314 216.921 6.28967C216.469 6.72482 216.032 7.17628 215.615 7.64651C215.363 7.9302 215.118 8.2203 214.882 8.51818C214.482 9.02379 214.546 9.18989 213.986 8.83711C211.835 7.4824 209.344 6.84882 206.834 7.16866C205.344 7.3587 203.894 7.82268 202.517 8.43338C202.049 8.64127 200.964 9.47053 200.464 9.47862C199.969 9.48655 198.899 8.71783 198.388 8.52245C195.631 7.46684 192.659 7.20664 189.761 7.69441C186.771 8.19773 183.835 9.43469 181.302 11.144C180.083 11.9663 179.021 12.8773 178.167 14.0999C177.798 14.6278 177.465 15.1862 177.047 15.6756C176.803 15.9622 176.318 16.2563 176.187 16.619C176.265 16.4018 172.917 15.0633 172.601 14.9777C170.918 14.5218 169.204 14.6142 167.556 15.1767C164.457 16.2345 161.792 18.6065 159.601 21.0385C158.476 22.2877 157.492 23.6684 156.656 25.1395C156.255 25.8442 155.889 26.569 155.554 27.3092C155.391 27.6678 155.284 28.1163 155.07 28.4394C154.794 28.8556 154.609 28.8635 154.109 29.045C151.573 29.9666 149.261 31.5264 147.5 33.6342C145.719 35.7666 144.563 38.3926 144.079 41.158C144.05 41.3209 144.033 41.9959 143.941 42.0841C143.815 42.2055 143.305 42.1518 143.112 42.1753C142.444 42.2566 141.781 42.3775 141.126 42.5383C139.919 42.8345 138.745 43.2704 137.634 43.8405C133.302 46.0629 130.205 50.2294 128.689 54.9177C127.099 59.8378 127.127 65.4746 129.028 70.3028C129.335 71.0827 129.7 71.8396 130.129 72.5557C130.393 72.9953 130.478 72.9964 130.307 73.4576C130.116 73.9707 129.768 74.4693 129.541 74.9706C128.802 76.6068 128.286 78.342 127.96 80.1143C127.424 83.0216 127.159 86.0768 127.687 89.0061C127.932 90.3663 128.359 91.696 129.011 92.9075C129.344 93.5252 129.732 94.1111 130.171 94.653C130.399 94.9344 130.642 95.2031 130.895 95.4606C131.04 95.6076 131.229 95.7363 131.353 95.9006C131.653 96.3011 131.716 95.9718 131.561 96.56C131.345 97.3822 130.853 98.1935 130.552 98.9936C130.242 99.8182 129.962 100.654 129.706 101.498C129.187 103.207 128.748 104.947 128.473 106.717C127.946 110.116 128.039 113.737 129.589 116.856C130.252 118.19 131.202 119.36 132.356 120.271C132.92 120.716 133.531 121.1 134.173 121.415C134.502 121.577 134.923 121.647 135.073 121.977C135.235 122.333 134.995 123.039 134.94 123.436C134.463 126.892 134.224 130.522 135.215 133.909C136.128 137.029 138.137 139.783 140.745 141.607C145.806 145.145 152.627 144.945 157.944 142.113C159.33 141.375 160.627 140.458 161.783 139.377C164.729 143.489 170.79 143.359 175.095 142.187C180.458 140.727 184.761 136.86 187.241 131.778C190.631 136.059 197.746 134.67 200.097 130.026C200.673 128.89 201.014 127.637 201.182 126.37C201.271 125.703 201.214 125.031 201.281 124.37C201.365 123.527 201.908 122.709 202.22 121.894C202.827 120.307 203.205 118.669 203.221 116.958C203.229 116.064 203.12 115.194 203.038 114.308C202.965 113.51 203.178 112.767 203.299 111.979C201.924 112.214 200.248 111.83 198.952 111.416C197.68 111.01 196.489 109.941 195.592 108.965C193.507 106.698 192.234 103.726 191.364 100.768C189.452 94.2759 190.236 86.487 196.532 82.9241C199.465 81.2644 208.253 81.2698 211.746 82.0901C215.419 82.9526 219.584 91.3583 219.788 92.1484C219.915 92.6374 219.852 93.2426 220.285 93.5684C221.237 94.2848 222.807 93.0416 223.509 92.428C224.72 91.369 225.585 89.96 226.333 88.5318C227.964 85.4203 229.279 82.0835 230.207 78.6772C230.923 76.0511 231.381 73.3431 232.317 70.7839C233.248 68.2374 234.716 65.9613 236.999 64.5187C239.482 62.9494 242.328 62.1229 245.054 61.1366C247.756 60.1593 250.411 58.9647 252.506 56.8909C252.966 56.4348 253.414 55.9503 253.784 55.4134C254.077 54.9895 254.366 54.1781 254.812 53.9093C255.505 53.4913 256.517 54.5785 257.116 54.9732C260.073 56.9209 262.54 59.6373 264.53 62.6048C266.509 65.5562 268.132 68.396 269.452 71.6915C270.43 74.1357 271.041 77.266 272.762 79.269C273.531 80.1634 279.243 80.7045 281.093 79.9237C282.943 79.1428 285.016 77.1153 285.637 75.8446C286.273 74.544 286.425 73.1153 286.153 71.6915C285.994 70.8539 285.667 70.0714 285.489 69.2487C285.339 68.5577 285.202 67.9044 284.878 67.2713C284.263 66.0715 283.213 65.2092 281.946 64.8486C283.264 63.5883 284.356 62.0806 285.112 60.3952C285.897 58.6443 286.563 56.5149 286.752 54.5931C286.905 53.0322 286.668 51.415 285.844 50.0735C284.98 48.6664 283.449 47.7483 282.124 46.8706C284.148 45.2285 285.88 43.2315 287.304 41.0205C290.073 36.7209 291.786 31.3012 290.379 26.1752Z" fill="#574A56"/>
<path d="M31.1026 502.093H288.642C306.966 502.093 321.974 517.524 321.974 536.753V750.423C321.974 769.651 306.966 785.083 288.642 785.083H31.1026C12.7791 785.083 -2.22894 769.651 -2.22894 750.423V536.753C-2.22894 517.524 12.7791 502.093 31.1026 502.093ZM66.9342 562.123C60.5212 562.123 55.4763 567.488 55.4763 573.913V713.263C55.4763 719.687 60.5212 725.053 66.9342 725.053H252.811C259.224 725.053 264.268 719.687 264.268 713.263V573.913C264.268 567.488 259.224 562.123 252.811 562.123H66.9342Z" fill="#3E3232" stroke="black" stroke-width="5"/>
<path fill-rule="evenodd" clip-rule="evenodd" d="M484.617 779.825C455.923 713.963 435.172 656.613 426.842 626.355C412.58 574.546 401.731 528.957 398.988 511.931C392.449 471.333 449.291 468.969 456.805 489.146C468.176 519.684 488.029 620.02 511.883 771.574L484.617 779.825ZM151.784 573.131C178.111 562.339 270.305 528.565 314.771 519.011C327.548 516.266 339.933 513.715 351.576 511.41C386.185 504.558 404.115 569.308 370.783 574.283C287.772 586.673 170.091 599.468 160.02 600.904C145.905 602.916 135.239 579.914 151.784 573.131Z" fill="#B28B67"/>
<path fill-rule="evenodd" clip-rule="evenodd" d="M372.817 493.592L230.416 418.414V402.048H247.351C385.118 438.454 455.517 461.786 458.548 472.043C458.581 472.153 458.61 472.264 458.638 472.374C458.707 472.469 458.775 472.564 458.842 472.659C486.145 511.6 502.496 701.713 507.863 715.948L455.545 724.042C435.532 647.079 371.503 593.464 373.203 501.286C372.744 498.582 372.628 496.018 372.817 493.592Z" fill="#363230"/>
<path fill-rule="evenodd" clip-rule="evenodd" d="M242.247 538.24C229.218 535.535 217.219 533.121 206.952 531.254C140.634 519.19 121.295 482.374 132.729 402.048H254.92C274.88 407.994 378.611 453.107 432.431 477.102C468.052 492.983 456.823 550.234 436.651 565.132C436.542 566.046 436.178 566.667 435.532 566.945C327.02 613.587 241.176 589.114 212.5 596.934L199.236 553.541L242.247 538.24Z" fill="#211C1B"/>
<path fill-rule="evenodd" clip-rule="evenodd" d="M161.151 566.341C153.974 567.112 148.874 568.268 145.851 569.806C142.174 571.677 137.101 575.033 130.631 579.873C132.665 584.225 150.947 623.339 185.477 697.215C196.782 695.236 201.293 690.762 199.01 683.791C196.727 676.82 194.887 671.001 193.491 666.332L191.828 599.665C191.796 598.382 190.759 597.387 189.512 597.443C189.49 597.444 189.469 597.445 189.448 597.447L179.475 598.183C173.851 593.516 170.15 589.282 168.373 585.479C166.929 582.39 166.158 577.501 166.059 570.813C166.021 568.246 163.968 566.234 161.473 566.318C161.366 566.322 161.258 566.329 161.151 566.341Z" fill="#B89088"/>
<path fill-rule="evenodd" clip-rule="evenodd" d="M471.558 767.614C469.053 774.55 467.8 779.739 467.8 783.183C467.8 787.371 468.473 793.483 469.818 801.518C474.503 801.518 516.607 801.518 596.129 801.518C599.411 790.264 597.516 784.188 590.444 783.291C583.373 782.394 577.498 781.584 572.82 780.861L514.112 753.718C512.983 753.196 511.659 753.722 511.155 754.894C511.146 754.914 511.138 754.934 511.13 754.954L507.356 764.447C500.81 767.615 495.49 769.199 491.397 769.199C488.071 769.199 483.479 767.806 477.619 765.021C475.37 763.952 472.712 764.975 471.681 767.307C471.637 767.408 471.596 767.51 471.558 767.614Z" fill="#B89088"/>
<path fill-rule="evenodd" clip-rule="evenodd" d="M360.405 365.172L423.844 429.354C442.303 437.52 457.427 446.536 469.217 456.403C471.868 459.72 474.755 466.075 462.28 463.231C449.806 460.388 436.561 457.978 434.217 462.185C431.872 466.393 438.781 472.839 434.447 478.346C431.559 482.016 421.844 470.34 405.303 443.318L339.334 402.982L360.405 365.172ZM78.8212 374.224L125.62 374.415C96.724 471.155 81.1243 522.485 78.8212 528.405C73.6391 541.723 84.605 562.007 89.2944 572.907C74.0211 579.995 75.6485 553.746 56.3816 563.042C38.7957 571.527 25.4181 586.901 5.10016 573.9C2.60218 572.301 -0.135193 566.283 6.47865 561.579C22.9561 549.862 46.7012 529.355 49.9096 522.604C54.2847 513.399 63.9219 463.939 78.8212 374.224Z" fill="#B28B67"/>
<path fill-rule="evenodd" clip-rule="evenodd" d="M211.817 170.569L231.182 167.124C264.522 253.498 322.731 331.98 405.808 402.57L343.031 481.666C259.963 381.156 208.761 277.457 211.817 170.569Z" fill="#574A56"/>
<path fill-rule="evenodd" clip-rule="evenodd" d="M127.4 422.95H299.839C259.889 322.212 239.914 236.636 239.914 166.223L187.898 158.185C147.018 226.37 135.473 310.319 127.4 422.95Z" fill="#DDE3E9"/>
<path fill-rule="evenodd" clip-rule="evenodd" d="M186.796 158.223C186.803 158.21 186.81 158.198 186.817 158.185H190.212C194.275 158.33 200.463 158.592 208.777 158.969L221.346 196.22C222.676 241.638 230.44 333.167 244.639 470.807H131.601C131.898 480.314 132.386 489.909 133.067 499.593H49.0184C61.5906 352.495 107.503 238.692 186.755 158.185L186.796 158.223Z" fill="#574A56"/>
<path fill-rule="evenodd" clip-rule="evenodd" d="M139.068 349.171C142.285 408.429 150.34 449.28 163.232 471.723H131.631C130.247 429.088 132.726 388.238 139.068 349.171Z" fill="black" fill-opacity="0.1"/>
<path fill-rule="evenodd" clip-rule="evenodd" d="M156.761 399.725L212.5 372.852V399.725H156.761Z" fill="white" fill-opacity="0.2"/>
</svg>
