<svg width="453" height="416" viewBox="0 0 453 416" fill="none" xmlns="http://www.w3.org/2000/svg">
<g clip-path="url(#clip0_228_2)">
<path d="M226.188 0C181.452 0 137.721 12.188 100.525 35.0227C63.3282 57.8575 34.3372 90.3133 17.2176 128.286C0.0980032 166.259 -4.38126 208.043 4.34623 248.355C13.0737 288.666 34.616 325.695 66.2489 354.758C97.8818 383.821 138.185 403.613 182.061 411.632C225.937 419.65 271.415 415.535 312.746 399.806C354.076 384.077 389.402 357.442 414.256 323.267C439.109 289.092 452.375 248.914 452.375 207.812C452.375 152.697 428.545 99.8393 386.126 60.8669C343.708 21.8945 286.176 0 226.188 0ZM193.875 290.789L113.094 216.57L138.782 192.969L193.875 243.586L313.593 133.594L339.378 157.136L193.875 290.789Z" fill="#E8D6CA"/>
</g>
<defs>
<clipPath id="clip0_228_2">
<rect width="452.375" height="415.625" fill="white"/>
</clipPath>
</defs>
</svg>
