<svg width="36" height="56" viewBox="0 0 36 56" fill="none" xmlns="http://www.w3.org/2000/svg">
<path d="M26.1501 25.5281L12.6501 22.0719C11.0876 21.6781 10.0001 20.3984 10.0001 18.9766C10.0001 17.1938 11.6501 15.75 13.6876 15.75H21.9751C23.5001 15.75 25.0001 16.1547 26.2501 16.8984C27.0126 17.3469 28.0376 17.2375 28.6876 16.6797L33.0376 12.9609C33.9251 12.2062 33.8001 10.9484 32.8126 10.2812C29.7501 8.18125 25.9251 7.01094 22.0001 7V1.75C22.0001 0.7875 21.1001 0 20.0001 0H16.0001C14.9001 0 14.0001 0.7875 14.0001 1.75V7H13.6876C5.72508 7 -0.674915 12.9828 0.0625847 20.0813C0.587585 25.1234 4.98759 29.225 10.5376 30.6469L23.3501 33.9281C24.9126 34.3328 26.0001 35.6016 26.0001 37.0234C26.0001 38.8062 24.3501 40.25 22.3126 40.25H14.0251C12.5001 40.25 11.0001 39.8453 9.75008 39.1016C8.98758 38.6531 7.96258 38.7625 7.31258 39.3203L2.96258 43.0391C2.07508 43.7938 2.20008 45.0516 3.18758 45.7188C6.25008 47.8188 10.0751 48.9891 14.0001 49V54.25C14.0001 55.2125 14.9001 56 16.0001 56H20.0001C21.1001 56 22.0001 55.2125 22.0001 54.25V48.9781C27.8251 48.8797 33.2876 45.85 35.2126 41.0266C37.9001 34.2891 33.3876 27.3766 26.1501 25.5281Z" fill="#ECE6DB"/>
</svg>
