<svg width="523" height="827" viewBox="0 0 523 827" fill="none" xmlns="http://www.w3.org/2000/svg">
<path fill-rule="evenodd" clip-rule="evenodd" d="M385.867 123.536C397.211 110.302 404.889 94.0842 403.606 75.9112C399.909 23.5497 326.57 35.0685 312.304 61.4961C298.038 87.9237 299.733 154.96 318.171 159.683C325.524 161.567 341.187 156.952 357.129 147.402L347.123 217.76H406.208L385.867 123.536Z" fill="#ECB89B"/>
<path fill-rule="evenodd" clip-rule="evenodd" d="M429.365 58.4814C431.274 56.6018 432.315 53.9191 433.215 51.3717C434.15 48.7255 435.059 46.052 435.68 43.2977C436.921 37.7944 436.932 31.4655 432.982 27.1922C429.814 23.7655 425.061 22.2285 420.673 21.8944C417.751 21.6717 414.749 22.0785 411.947 22.9939C409.167 23.902 406.771 25.712 404.076 26.8353C403.973 20.9047 402.951 14.6993 399.924 9.63548C397.01 4.76325 392.366 2.02914 387.076 1.30581C381.647 0.563481 376.286 1.82609 371.426 4.43823C370.209 5.09242 369.004 5.77777 367.85 6.55345C366.884 7.20302 365.88 7.98527 364.747 8.24943C363.483 8.54426 362.857 7.81898 362.036 6.90282C361.073 5.82866 359.988 4.88255 358.84 4.04381C353.765 0.33584 347.105 -1.18874 341.225 1.03386C338.515 2.05787 335.881 3.79694 334.042 6.19337C332.404 8.32953 331.235 11.7181 328.974 13.2064C328.014 13.8382 327.336 13.0011 326.463 12.3825C325.15 11.4529 323.898 10.4272 322.57 9.523C320.704 8.2526 318.684 7.30235 316.521 6.80495C313.354 6.07675 308.978 6.24742 308.072 10.3698C307.732 11.9182 307.993 13.5743 308.103 15.1344C308.253 17.2766 308.411 19.4181 308.598 21.5572C308.74 23.1814 308.92 24.75 309.228 26.345C309.392 27.1951 309.907 28.7801 309.54 29.6315C309.082 30.6957 306.966 30.0907 306.062 30.1277C304.277 30.201 302.484 30.5121 300.834 31.2703C299.554 31.858 298.209 32.7223 297.669 34.1797C297.337 35.0749 297.425 35.9945 297.581 36.9155C297.77 38.0208 297.554 38.6071 297.414 39.7224C295.016 38.5489 286.707 35.9416 285.661 40.2125C285.313 41.6346 286.106 43.2414 286.711 44.4408C287.771 46.5443 289.162 48.4669 290.584 50.3005C293.549 54.1256 297.089 57.4247 300.899 60.2463C296.436 62.2181 295.271 68.0342 299.135 71.4995C300.841 73.0294 303.135 73.37 305.287 73.2721C306.074 73.2363 307.21 72.9354 307.829 73.0718C308.163 73.145 308.52 73.426 308.982 73.4574C312.019 73.6641 315.448 72.9369 318.416 72.2671C323.706 71.0736 328.715 68.5827 332.804 64.7891C333.854 63.8159 334.72 63.2557 336.132 63.2701C337.37 63.2825 338.584 63.6197 339.82 63.6509C343.091 63.7339 346.041 62.1446 349.078 61.0867C349.264 65.165 350.433 69.6567 352.112 73.3257C353.48 76.3176 356.339 76.7525 359.148 77.0149C368.13 77.8549 377.144 76.9175 386.137 76.9299C377.431 78.8857 368.435 79.6918 359.806 81.9933C355.906 83.0334 358.884 85.646 360.552 87.4571C363.298 90.4396 365.34 94.1349 366.756 98.0279C371.015 92.5105 378.543 88.8751 385.212 90.5701C392.581 92.4426 397.77 102.346 393.058 109.467C390.322 113.6 385.382 115.196 381.271 116.971C384.478 120.285 385.254 125.179 387.184 129.301C388.136 131.334 389.472 133.633 391.601 134.341C392.388 134.603 393.312 134.626 393.933 135.264C394.703 136.054 394.886 136.937 395.869 137.616C399.792 140.327 405.919 140.118 409.395 136.581C412.539 133.382 411.721 128.321 409.095 125.078C413.275 123.346 420.89 121.119 419.229 114.647C428.286 114.05 450.276 99.451 438.12 88.7833C444.791 85.0361 450.92 75.8784 446.635 67.8059C443.335 61.5897 435.662 58.811 429.365 58.4814Z" fill="url(#paint0_linear_13_4)"/>
<path fill-rule="evenodd" clip-rule="evenodd" d="M512.997 523.604H322.807L297.886 827H581L512.997 523.604Z" fill="#C5CFD6"/>
<path fill-rule="evenodd" clip-rule="evenodd" d="M512.997 523.604H454.503L419.492 827H581L512.997 523.604Z" fill="black" fill-opacity="0.1"/>
<path fill-rule="evenodd" clip-rule="evenodd" d="M105.975 471.625C85.6972 459.524 51.6758 475.072 51.6991 492.379C51.769 544.163 99.3198 788.222 101.802 803.65C104.285 819.078 130.881 823.154 132.43 803.701C134.894 772.748 139.472 665.596 134.892 615.999C133.001 595.527 130.964 576.029 128.959 558.635C153.911 603.418 192.5 667.536 244.726 750.989L273.078 738.115C250.814 665.212 232.558 613.744 218.31 583.712C193.913 532.289 171.037 488.252 161.41 472.741C146.265 448.341 119.904 456.854 105.975 471.625Z" fill="#ECB89B"/>
<path fill-rule="evenodd" clip-rule="evenodd" d="M271.052 697.63L173.74 468.521C150.428 431.251 85.0669 476.105 93.0168 497.722C111.066 546.797 202.858 705.677 208.236 720.298L271.052 697.63Z" fill="#030303"/>
<path fill-rule="evenodd" clip-rule="evenodd" d="M276.456 723.667C282.517 728.627 286.461 732.677 288.286 735.819C290.505 739.64 293.104 745.583 296.082 753.649C291.622 756.208 251.538 779.208 175.831 822.65C166.742 814.175 165.325 807.597 171.582 802.915C177.839 798.233 183.003 794.285 187.073 791.07L228.579 734.236C229.377 733.142 230.917 732.899 232.017 733.693C232.036 733.706 232.055 733.72 232.073 733.734L240.697 740.334C248.609 739.648 254.513 738.187 258.41 735.951C261.576 734.134 265.21 730.355 269.312 724.612C270.886 722.408 273.96 721.89 276.177 723.455C276.272 723.522 276.366 723.593 276.456 723.667Z" fill="black"/>
<path fill-rule="evenodd" clip-rule="evenodd" d="M138.657 791.282C141.411 798.589 142.788 804.057 142.788 807.685C142.788 812.097 142.049 818.535 140.569 827C135.419 827 89.1348 827 1.71577 827C-1.89253 815.144 0.190384 808.744 7.96455 807.799C15.7387 806.853 22.1969 806 27.339 805.238L91.8768 776.643C93.1186 776.093 94.5741 776.648 95.1277 777.882C95.1372 777.903 95.1464 777.924 95.1552 777.945L99.3037 787.947C106.501 791.284 112.349 792.953 116.848 792.953C120.504 792.953 125.553 791.485 131.994 788.551C134.466 787.424 137.389 788.503 138.522 790.96C138.571 791.066 138.616 791.173 138.657 791.282Z" fill="black"/>
<path fill-rule="evenodd" clip-rule="evenodd" d="M44.8788 509.983C44.8788 574.985 75.9396 726.611 75.9593 740.924L142.788 740.975C133.006 605.681 129.538 537.305 132.383 535.848C136.65 533.661 307.3 552.781 358.481 552.781C432.284 552.781 462.815 506.526 465.292 420.84H319.091C289.323 424.006 134.051 455.132 76.3864 465.832C51.6991 470.413 44.8788 492.076 44.8788 509.983Z" fill="#252524"/>
<path fill-rule="evenodd" clip-rule="evenodd" d="M296.315 268.408L210.864 221.895C196.654 205.124 182.653 192.099 168.862 182.82C164.647 181.072 157.278 180.013 164.17 192.171C171.062 204.328 177.761 217.424 174.25 221.17C170.739 224.915 161.983 219.683 157.794 225.906C155.002 230.055 169.96 236.609 202.669 245.568L264.759 302.069L296.315 268.408ZM162.483 307.653L124.948 287.16C119.681 267.243 113.386 257.222 106.061 257.097C100.434 254.495 110.233 279.662 99.5667 277.48C88.8999 275.297 62.8654 256.053 58.3795 259.961C51.743 265.741 57.6605 283.491 64.6328 292.32C77.664 308.822 88.4533 314.465 115.121 321.855C129.064 325.719 144.139 333.464 160.346 345.089L162.483 307.653Z" fill="#ECB89B"/>
<path fill-rule="evenodd" clip-rule="evenodd" d="M337.93 258.047C308 257.733 268.087 251.45 225.501 224.584L208.776 261.652C238.151 290.625 279.456 314.43 315.571 313.422C344.033 312.628 358.579 278.413 337.93 258.047Z" fill="#D79A3F"/>
<path fill-rule="evenodd" clip-rule="evenodd" d="M297.629 317.493C265.854 325.369 212.57 316.081 137.776 289.63C119.224 327.775 110.648 354.969 112.048 371.213C176.21 404.523 231.202 419.374 276.509 420.355C275.069 447.073 278.341 472.496 289.333 495.725C311.931 543.482 444.256 499.254 488.747 507.959C516.609 418.03 462.737 381.483 462.694 323.941C462.646 260.926 411.736 163.932 404.246 163.932H335.937C332.168 212.057 313.197 265.095 297.629 317.493Z" fill="#F39E1D"/>
<defs>
<linearGradient id="paint0_linear_13_4" x1="366.818" y1="0" x2="366.818" y2="139.464" gradientUnits="userSpaceOnUse">
<stop stop-color="#913E0F"/>
<stop offset="1" stop-color="#98695B"/>
</linearGradient>
</defs>
</svg>
