<svg width="311" height="626" viewBox="0 0 311 626" fill="none" xmlns="http://www.w3.org/2000/svg">
<path fill-rule="evenodd" clip-rule="evenodd" d="M181.801 98.0787C164.862 98.0787 158.701 77.3392 149.078 65.9579C142.193 57.8148 130.441 60.2429 126.963 48.8428C118.216 20.1762 141.627 0 172.167 0C202.707 0 223.299 17.6951 227.746 44.2956C232.192 70.8961 212.341 98.0787 181.801 98.0787Z" fill="#191847"/>
<path fill-rule="evenodd" clip-rule="evenodd" d="M179.93 79.5612C186.759 71.363 191.381 61.3159 190.609 50.0579C188.384 17.6203 144.232 24.7562 135.643 41.1279C127.055 57.4995 128.075 99.0276 139.175 101.954C143.602 103.121 153.032 100.262 162.629 94.346L156.605 137.932H192.175L179.93 79.5612Z" fill="#B28B67"/>
<path fill-rule="evenodd" clip-rule="evenodd" d="M164.935 58.6949C166.227 57.9956 167.708 57.5984 169.282 57.5984C174.321 57.5984 178.407 61.6702 178.407 66.6929C178.407 68.7429 177.726 70.6345 176.578 72.1555C178.74 75.8 180.215 79.6292 180.699 83.5657C188.193 83.5657 215.543 54.567 188.297 27.2837C161.051 0.00038147 121.678 38.9487 133.509 41.2202C140.312 42.5261 154.012 49.1678 164.935 58.6949Z" fill="#191847"/>
<path fill-rule="evenodd" clip-rule="evenodd" d="M204.032 263.738L148.259 450.211L121.242 608.794H100.058L128.607 263.738H204.032Z" fill="#997659"/>
<path fill-rule="evenodd" clip-rule="evenodd" d="M223.984 263.738C220.196 366.122 224.654 418.933 225.502 428.235C226.35 437.537 237.96 497.851 265.445 611.916L242.872 603.988C199.435 499.373 184.633 445.003 179.651 431.266C174.669 417.529 161.437 361.687 139.956 263.738H223.984Z" fill="#B28B67"/>
<path fill-rule="evenodd" clip-rule="evenodd" d="M265.275 603.873C266.933 608.4 267.762 611.787 267.762 614.034C267.762 616.768 267.317 620.756 266.426 626C263.326 626 235.462 626 182.833 626C180.661 618.656 181.915 614.691 186.595 614.105C191.276 613.519 195.164 612.991 198.259 612.519L237.112 594.805C237.86 594.464 238.736 594.807 239.07 595.572C239.075 595.585 239.081 595.598 239.086 595.611L241.584 601.807C245.916 603.874 249.437 604.908 252.146 604.908C254.347 604.908 257.386 603.999 261.264 602.181C262.752 601.483 264.512 602.152 265.194 603.673C265.223 603.739 265.25 603.806 265.275 603.873Z" fill="#0F2D50"/>
<path fill-rule="evenodd" clip-rule="evenodd" d="M125.958 603.873C127.616 608.4 128.445 611.787 128.445 614.034C128.445 616.768 128 620.756 127.109 626C124.009 626 96.1446 626 43.5164 626C41.3442 618.656 42.5981 614.691 47.2784 614.105C51.9586 613.519 55.8465 612.991 58.9422 612.519L97.7953 594.805C98.543 594.464 99.4192 594.807 99.7525 595.572C99.7582 595.585 99.7637 595.598 99.7691 595.611L102.267 601.807C106.599 603.874 110.12 604.908 112.829 604.908C115.03 604.908 118.069 603.999 121.947 602.181C123.435 601.483 125.194 602.152 125.877 603.673C125.906 603.739 125.933 603.806 125.958 603.873Z" fill="#0F2D50"/>
<path fill-rule="evenodd" clip-rule="evenodd" d="M211.442 263.738L187.729 358.744H115.298L126.098 263.738H211.442Z" fill="#7998B5"/>
<path fill-rule="evenodd" clip-rule="evenodd" d="M224.781 263.738C232.584 287.657 234.066 319.326 229.228 358.744H155.315L134.991 263.738H224.781Z" fill="#8DB3D6"/>
<path fill-rule="evenodd" clip-rule="evenodd" d="M73.5417 239.672L31.557 281.56C19.3411 286.889 9.33179 292.773 1.52927 299.213C-0.225433 301.377 -2.13568 305.525 6.12 303.669C14.3756 301.813 23.141 300.241 24.6926 302.986C26.2442 305.732 21.6722 309.94 24.5398 313.533C26.4516 315.929 32.8809 308.309 43.8279 290.673L87.4864 264.349L73.5417 239.672ZM259.895 245.58L228.923 245.704C248.047 308.84 258.371 342.34 259.895 346.203C263.325 354.895 256.068 368.133 252.964 375.247C263.072 379.873 261.995 362.742 274.746 368.809C286.384 374.346 295.238 384.38 308.684 375.895C310.337 374.851 312.149 370.924 307.772 367.854C296.867 360.207 281.152 346.823 279.029 342.418C276.134 336.41 269.756 304.131 259.895 245.58Z" fill="#B28B67"/>
<path fill-rule="evenodd" clip-rule="evenodd" d="M171.878 112.668L159.062 110.42C136.997 166.79 98.4745 218.01 43.4938 264.079L85.04 315.7C140.014 250.104 173.901 182.426 171.878 112.668Z" fill="#191847"/>
<path fill-rule="evenodd" clip-rule="evenodd" d="M227.746 277.38H113.624C140.063 211.635 153.283 155.786 153.283 109.831L187.708 104.586C214.763 149.086 222.403 203.874 227.746 277.38Z" fill="#091725"/>
<path fill-rule="evenodd" clip-rule="evenodd" d="M188.437 104.611C188.432 104.603 188.428 104.594 188.423 104.586H186.176C183.487 104.681 179.392 104.851 173.89 105.098L165.571 129.409C164.691 159.05 159.553 218.785 150.156 308.613H224.965C224.769 314.817 224.446 321.079 223.995 327.399H279.619C271.299 231.399 240.914 157.127 188.464 104.586L188.437 104.611Z" fill="#2F3676"/>
<path fill-rule="evenodd" clip-rule="evenodd" d="M220.024 229.229C217.894 267.903 212.564 294.564 204.032 309.21H224.946C225.861 281.386 224.221 254.725 220.024 229.229Z" fill="black" fill-opacity="0.1"/>
<path fill-rule="evenodd" clip-rule="evenodd" d="M208.314 262.223L171.426 244.685V262.223H208.314Z" fill="white" fill-opacity="0.2"/>
</svg>
