<svg width="50" height="40" viewBox="0 0 50 40" fill="none" xmlns="http://www.w3.org/2000/svg">
<path d="M25 0C22.6794 0 20.4538 0.921873 18.8128 2.56282C17.1719 4.20376 16.25 6.42936 16.25 8.75H21.25C21.25 7.75544 21.6451 6.80161 22.3483 6.09835C23.0516 5.39509 24.0054 5 25 5C25.9946 5 26.9484 5.39509 27.6517 6.09835C28.3549 6.80161 28.75 7.75544 28.75 8.75C28.75 9.74456 28.3549 10.6984 27.6517 11.4017C26.9484 12.1049 25.9946 12.5 25 12.5C23.625 12.5 22.5 13.625 22.5 15V19.375L1 35.5C0.580235 35.8148 0.270166 36.2537 0.113716 36.7546C-0.0427343 37.2554 -0.0376348 37.7928 0.128292 38.2906C0.294219 38.7883 0.61256 39.2213 1.03822 39.5281C1.46389 39.8349 1.97529 40 2.5 40H47.5C48.0247 40 48.5361 39.8349 48.9618 39.5281C49.3874 39.2213 49.7058 38.7883 49.8717 38.2906C50.0376 37.7928 50.0427 37.2554 49.8863 36.7546C49.7298 36.2537 49.4198 35.8148 49 35.5L27.5 19.375V17.125C29.3041 16.5871 30.8866 15.4817 32.0125 13.973C33.1385 12.4642 33.7478 10.6326 33.75 8.75C33.75 6.42936 32.8281 4.20376 31.1872 2.56282C29.5462 0.921873 27.3206 0 25 0ZM25 23.75L40 35H10L25 23.75Z" fill="#ECE6DB"/>
</svg>
