<svg width="50" height="50" viewBox="0 0 50 50" fill="none" xmlns="http://www.w3.org/2000/svg">
<path d="M19.1084 33.8375L25.0001 27.9458L30.8918 33.8375L33.8376 30.8916L27.9459 25L33.8376 19.1083L30.8918 16.1625L25.0001 22.0541L19.1084 16.1625L16.1626 19.1083L22.0543 25L16.1626 30.8916L19.1084 33.8375Z" fill="#B89088"/>
<path d="M25.0001 45.8333C36.4876 45.8333 45.8334 36.4875 45.8334 25C45.8334 13.5125 36.4876 4.16663 25.0001 4.16663C13.5126 4.16663 4.16675 13.5125 4.16675 25C4.16675 36.4875 13.5126 45.8333 25.0001 45.8333ZM25.0001 8.33329C34.1897 8.33329 41.6668 15.8104 41.6668 25C41.6668 34.1895 34.1897 41.6666 25.0001 41.6666C15.8105 41.6666 8.33342 34.1895 8.33342 25C8.33342 15.8104 15.8105 8.33329 25.0001 8.33329Z" fill="#B89088"/>
</svg>
